<mxfile host="app.diagrams.net" agent="Mozilla/5.0 (Windows NT 10.0; Win64; x64) AppleWebKit/537.36 (KHTML, like Gecko) Chrome/128.0.0.0 Safari/537.36" version="24.7.13">
  <diagram name="PÃ¡gina-1" id="8gO_-JeL0TrWuAPeDjyS">
    <mxGraphModel dx="838" dy="438" grid="1" gridSize="10" guides="1" tooltips="1" connect="1" arrows="1" fold="1" page="1" pageScale="1" pageWidth="827" pageHeight="1169" math="0" shadow="0">
      <root>
        <mxCell id="0" />
        <mxCell id="1" parent="0" />
        <mxCell id="fK3rxIemdkDlgnldKzUo-1" value="clientes" style="swimlane;childLayout=stackLayout;horizontal=1;startSize=50;horizontalStack=0;rounded=1;fontSize=14;fontStyle=0;strokeWidth=2;resizeParent=0;resizeLast=1;shadow=0;dashed=0;align=center;arcSize=4;whiteSpace=wrap;html=1;" vertex="1" parent="1">
          <mxGeometry x="120" y="80" width="160" height="180" as="geometry" />
        </mxCell>
        <mxCell id="fK3rxIemdkDlgnldKzUo-2" value="codigo PK&lt;div&gt;cpf&lt;/div&gt;&lt;div&gt;nome&lt;/div&gt;&lt;div&gt;endereco&lt;/div&gt;&lt;div&gt;bairro&lt;/div&gt;&lt;div&gt;cidade&amp;nbsp;&lt;/div&gt;&lt;div&gt;estado&amp;nbsp;&lt;/div&gt;&lt;div&gt;telefone&lt;/div&gt;&lt;div&gt;&lt;br&gt;&lt;/div&gt;" style="align=left;strokeColor=none;fillColor=none;spacingLeft=4;fontSize=12;verticalAlign=top;resizable=0;rotatable=0;part=1;html=1;" vertex="1" parent="fK3rxIemdkDlgnldKzUo-1">
          <mxGeometry y="50" width="160" height="130" as="geometry" />
        </mxCell>
        <mxCell id="fK3rxIemdkDlgnldKzUo-4" value="animais" style="swimlane;childLayout=stackLayout;horizontal=1;startSize=50;horizontalStack=0;rounded=1;fontSize=14;fontStyle=0;strokeWidth=2;resizeParent=0;resizeLast=1;shadow=0;dashed=0;align=center;arcSize=4;whiteSpace=wrap;html=1;" vertex="1" parent="1">
          <mxGeometry x="360" y="80" width="160" height="180" as="geometry" />
        </mxCell>
        <mxCell id="fK3rxIemdkDlgnldKzUo-5" value="codigo PK&lt;div&gt;nomeanimal&lt;/div&gt;&lt;div&gt;raca&lt;/div&gt;&lt;div&gt;especie&lt;/div&gt;&lt;div&gt;peso&lt;/div&gt;&lt;div&gt;altura&lt;/div&gt;&lt;div&gt;cor&lt;/div&gt;&lt;div&gt;idade&lt;/div&gt;&lt;div&gt;&lt;br&gt;&lt;/div&gt;" style="align=left;strokeColor=none;fillColor=none;spacingLeft=4;fontSize=12;verticalAlign=top;resizable=0;rotatable=0;part=1;html=1;" vertex="1" parent="fK3rxIemdkDlgnldKzUo-4">
          <mxGeometry y="50" width="160" height="130" as="geometry" />
        </mxCell>
        <mxCell id="fK3rxIemdkDlgnldKzUo-6" value="funcionario" style="swimlane;childLayout=stackLayout;horizontal=1;startSize=50;horizontalStack=0;rounded=1;fontSize=14;fontStyle=0;strokeWidth=2;resizeParent=0;resizeLast=1;shadow=0;dashed=0;align=center;arcSize=4;whiteSpace=wrap;html=1;" vertex="1" parent="1">
          <mxGeometry x="600" y="75" width="160" height="190" as="geometry" />
        </mxCell>
        <mxCell id="fK3rxIemdkDlgnldKzUo-7" value="codigo PK&amp;nbsp;&lt;div&gt;cpf&lt;/div&gt;&lt;div&gt;nome&lt;/div&gt;&lt;div&gt;endereco&lt;/div&gt;&lt;div&gt;cidade&lt;/div&gt;&lt;div&gt;estado&lt;/div&gt;&lt;div&gt;telefone&lt;/div&gt;&lt;div&gt;cargo&lt;/div&gt;&lt;div&gt;salario&lt;/div&gt;" style="align=left;strokeColor=none;fillColor=none;spacingLeft=4;fontSize=12;verticalAlign=top;resizable=0;rotatable=0;part=1;html=1;" vertex="1" parent="fK3rxIemdkDlgnldKzUo-6">
          <mxGeometry y="50" width="160" height="140" as="geometry" />
        </mxCell>
        <mxCell id="fK3rxIemdkDlgnldKzUo-8" value="atendimento" style="swimlane;childLayout=stackLayout;horizontal=1;startSize=50;horizontalStack=0;rounded=1;fontSize=14;fontStyle=0;strokeWidth=2;resizeParent=0;resizeLast=1;shadow=0;dashed=0;align=center;arcSize=4;whiteSpace=wrap;html=1;" vertex="1" parent="1">
          <mxGeometry x="360" y="320" width="160" height="180" as="geometry" />
        </mxCell>
        <mxCell id="fK3rxIemdkDlgnldKzUo-9" value="codigo PK&lt;div&gt;data&lt;/div&gt;&lt;div&gt;hora&lt;/div&gt;&lt;div&gt;&lt;div&gt;codfuncionario FK&lt;/div&gt;&lt;div&gt;codcliente FK&lt;/div&gt;&lt;div&gt;codanimal FK&lt;/div&gt;&lt;/div&gt;&lt;div&gt;tipo&lt;/div&gt;&lt;div&gt;valor&lt;/div&gt;&lt;div&gt;&lt;br&gt;&lt;/div&gt;" style="align=left;strokeColor=none;fillColor=none;spacingLeft=4;fontSize=12;verticalAlign=top;resizable=0;rotatable=0;part=1;html=1;" vertex="1" parent="fK3rxIemdkDlgnldKzUo-8">
          <mxGeometry y="50" width="160" height="130" as="geometry" />
        </mxCell>
        <mxCell id="fK3rxIemdkDlgnldKzUo-16" value="" style="fontSize=12;html=1;endArrow=ERmany;startArrow=ERmany;rounded=0;entryX=0.5;entryY=1;entryDx=0;entryDy=0;exitX=0.5;exitY=0;exitDx=0;exitDy=0;" edge="1" parent="1" source="fK3rxIemdkDlgnldKzUo-8" target="fK3rxIemdkDlgnldKzUo-5">
          <mxGeometry width="100" height="100" relative="1" as="geometry">
            <mxPoint x="430" y="340" as="sourcePoint" />
            <mxPoint x="410" y="280" as="targetPoint" />
          </mxGeometry>
        </mxCell>
        <mxCell id="fK3rxIemdkDlgnldKzUo-20" value="" style="edgeStyle=entityRelationEdgeStyle;fontSize=12;html=1;endArrow=ERmany;startArrow=ERmany;rounded=0;entryX=0;entryY=0.25;entryDx=0;entryDy=0;exitX=1;exitY=0.5;exitDx=0;exitDy=0;" edge="1" parent="1" source="fK3rxIemdkDlgnldKzUo-2" target="fK3rxIemdkDlgnldKzUo-9">
          <mxGeometry width="100" height="100" relative="1" as="geometry">
            <mxPoint x="240" y="410" as="sourcePoint" />
            <mxPoint x="340" y="310" as="targetPoint" />
            <Array as="points">
              <mxPoint x="350" y="420" />
            </Array>
          </mxGeometry>
        </mxCell>
        <mxCell id="fK3rxIemdkDlgnldKzUo-23" value="" style="edgeStyle=entityRelationEdgeStyle;fontSize=12;html=1;endArrow=ERmany;startArrow=ERmany;rounded=0;exitX=1;exitY=0.25;exitDx=0;exitDy=0;" edge="1" parent="1" source="fK3rxIemdkDlgnldKzUo-9">
          <mxGeometry width="100" height="100" relative="1" as="geometry">
            <mxPoint x="430" y="340" as="sourcePoint" />
            <mxPoint x="600" y="200" as="targetPoint" />
          </mxGeometry>
        </mxCell>
      </root>
    </mxGraphModel>
  </diagram>
</mxfile>
